<svg width="25" height="25" viewBox="0 0 25 25" fill="none" xmlns="http://www.w3.org/2000/svg">
<path d="M12.5 0C5.625 0 0 5.6125 0 12.525C0 18.775 4.575 23.9625 10.55 24.9V16.15H7.375V12.525H10.55V9.7625C10.55 6.625 12.4125 4.9 15.275 4.9C16.6375 4.9 18.0625 5.1375 18.0625 5.1375V8.225H16.4875C14.9375 8.225 14.45 9.1875 14.45 10.175V12.525H17.925L17.3625 16.15H14.45V24.9C17.3955 24.4348 20.0777 22.9319 22.0124 20.6625C23.947 18.3933 25.0068 15.507 25 12.525C25 5.6125 19.375 0 12.5 0Z" fill="white"/>
</svg>
