<svg width="128" height="181" viewBox="0 0 128 181" fill="none" xmlns="http://www.w3.org/2000/svg">
<path id="Vector" d="M128 63.35V72.4C127.982 87.6207 122.428 102.326 112.355 113.826C102.282 125.326 88.362 132.852 73.1429 135.026V162.9H100.571V181H27.4286L27.4286 162.9H54.8571V135.026C39.638 132.852 25.7184 125.326 15.6451 113.826C5.57172 102.326 0.0180216 87.6207 0 72.4L0 63.35H18.2857V72.4C18.2857 84.401 23.102 95.9106 31.6751 104.397C40.2482 112.883 51.8758 117.65 64 117.65C76.1242 117.65 87.7518 112.883 96.3249 104.397C104.898 95.9106 109.714 84.401 109.714 72.4V63.35H128ZM64 99.55C71.2745 99.55 78.2511 96.6896 83.3949 91.598C88.5388 86.5063 91.4286 79.6006 91.4286 72.4V27.15C91.4286 19.9494 88.5388 13.0437 83.3949 7.95205C78.2511 2.86044 71.2745 0 64 0C56.7255 0 49.7489 2.86044 44.6051 7.95205C39.4612 13.0437 36.5714 19.9494 36.5714 27.15V72.4C36.5714 79.6006 39.4612 86.5063 44.6051 91.598C49.7489 96.6896 56.7255 99.55 64 99.55Z" fill="#D9B38C"/>
</svg>
