<svg width="21" height="27" viewBox="0 0 21 27" fill="none" xmlns="http://www.w3.org/2000/svg">
<path fill-rule="evenodd" clip-rule="evenodd" d="M13.9382 4.47785C14.8072 3.3218 15.393 1.71166 15.2327 0.109619C13.9804 0.164344 12.4653 1.02783 11.5673 2.18251C10.761 3.20721 10.0571 4.84454 10.2463 6.41513C11.6433 6.53414 13.0691 5.63525 13.9382 4.47785ZM17.0708 14.6459C17.1057 18.7871 20.3733 20.1647 20.4095 20.1825C20.383 20.2796 19.8876 22.1454 18.6883 24.0744C17.6505 25.7408 16.5742 27.4004 14.8783 27.4359C13.2126 27.4701 12.6762 26.3497 10.7706 26.3497C8.86621 26.3497 8.27079 27.4002 6.69424 27.47C5.05743 27.537 3.80993 25.6672 2.76492 24.0063C0.626699 20.6093 -1.0065 14.4066 1.18717 10.2202C2.27677 8.14206 4.22335 6.82406 6.33747 6.79123C7.94415 6.75702 9.46164 7.98031 10.444 7.98031C11.4263 7.98031 13.2704 6.5096 15.2086 6.72576C16.0197 6.7627 18.2978 7.08546 19.7598 9.43995C19.6417 9.52067 17.0418 11.1846 17.0708 14.6459Z" fill="white"/>
</svg>
