<svg width="39" height="24" viewBox="0 0 39 24" fill="none" xmlns="http://www.w3.org/2000/svg">
<path d="M4.43099 12.8219L17.431 21.8219C17.581 21.9257 17.7566 21.9865 17.9387 21.9977C18.1208 22.0089 18.3025 21.9701 18.4641 21.8854C18.6257 21.8007 18.761 21.6735 18.8555 21.5174C18.95 21.3613 18.9999 21.1824 19 20.9999V2.99993C19.0001 2.81741 18.9503 2.63833 18.8559 2.48211C18.7615 2.32589 18.6261 2.19849 18.4645 2.1137C18.3029 2.02892 18.1211 1.98999 17.9389 2.00113C17.7567 2.01228 17.5811 2.07307 17.431 2.17693L4.43099 11.1769C4.29855 11.2694 4.19039 11.3924 4.1157 11.5356C4.04102 11.6788 4.00201 11.8379 4.00201 11.9994C4.00201 12.1609 4.04102 12.3201 4.1157 12.4633C4.19039 12.6065 4.29855 12.7295 4.43099 12.8219Z" fill="white"/>
<path d="M19.431 12.8219L32.431 21.8219C32.581 21.9257 32.7566 21.9865 32.9387 21.9977C33.1208 22.0089 33.3025 21.9701 33.4641 21.8854C33.6257 21.8007 33.761 21.6735 33.8555 21.5174C33.95 21.3613 33.9999 21.1824 34 20.9999V2.99993C34.0001 2.81741 33.9503 2.63833 33.8559 2.48211C33.7615 2.32589 33.6261 2.19849 33.4645 2.1137C33.3029 2.02892 33.1211 1.98999 32.9389 2.00113C32.7567 2.01228 32.5811 2.07307 32.431 2.17693L19.431 11.1769C19.2985 11.2694 19.1904 11.3924 19.1157 11.5356C19.041 11.6788 19.002 11.8379 19.002 11.9994C19.002 12.1609 19.041 12.3201 19.1157 12.4633C19.1904 12.6065 19.2985 12.7295 19.431 12.8219Z" fill="white"/>
</svg>
