<svg width="8" height="10" viewBox="0 0 8 10" fill="none" xmlns="http://www.w3.org/2000/svg">
<path d="M7.03125 1.18196L5.46425 1.179L5.46469 0.886674C5.46541 0.402328 5.08333 0.0089744 4.61127 0.00808171L3.47164 0.00592658C2.99958 0.00503389 2.61633 0.39694 2.61561 0.881286L2.61517 1.17361L1.04817 1.17065C0.654803 1.1699 0.335413 1.49651 0.33481 1.90012L0.333938 2.48477C0.333697 2.64622 0.461052 2.77733 0.61841 2.77763L7.45621 2.79056C7.61357 2.79086 7.74132 2.66023 7.74156 2.49877L7.74243 1.91412C7.74303 1.51051 7.42462 1.18271 7.03125 1.18196ZM3.18542 0.882364C3.18566 0.72122 3.31371 0.59028 3.47077 0.590577L4.6104 0.592733C4.76746 0.59303 4.89511 0.724452 4.89487 0.885597L4.89444 1.17792L3.18499 1.17469L3.18542 0.882364Z" fill="black"/>
<path d="M0.914291 3.33366C0.864112 3.33357 0.824061 3.37794 0.826372 3.43106L1.05066 8.59192C1.07139 9.06955 1.44098 9.44428 1.89198 9.44513L6.16254 9.4532C6.61353 9.45405 6.98424 9.08072 7.0064 8.60317L7.2461 3.44319C7.24857 3.39007 7.20866 3.34556 7.15848 3.34546L0.914291 3.33366ZM5.16012 4.08676C5.16037 3.9221 5.28641 3.78897 5.44178 3.78926C5.59715 3.78956 5.72279 3.92316 5.72255 4.08782L5.71676 7.9622C5.71651 8.12687 5.59047 8.26 5.4351 8.2597C5.27973 8.25941 5.15409 8.1258 5.15433 7.96114L5.16012 4.08676ZM3.75406 4.0841C3.7543 3.91944 3.88035 3.78631 4.03572 3.78661C4.19109 3.7869 4.31673 3.9205 4.31648 4.08517L4.3107 7.95955C4.31045 8.12421 4.18441 8.25734 4.02904 8.25704C3.87367 8.25675 3.74802 8.12315 3.74827 7.95848L3.75406 4.0841ZM2.348 4.08145C2.34824 3.91679 2.47428 3.78365 2.62965 3.78395C2.78502 3.78424 2.91067 3.91785 2.91042 4.08251L2.90463 7.95689C2.90439 8.12155 2.77835 8.25468 2.62298 8.25439C2.46761 8.25409 2.34196 8.12049 2.34221 7.95583L2.348 4.08145Z" fill="black"/>
</svg>
