<svg width="30" height="30" viewBox="0 0 30 30" fill="none" xmlns="http://www.w3.org/2000/svg">
<path d="M14.5 0C7.625 0 2 5.6125 2 12.525C2 18.775 6.575 23.9625 12.55 24.9V16.15H9.375V12.525H12.55V9.7625C12.55 6.625 14.4125 4.9 17.275 4.9C18.6375 4.9 20.0625 5.1375 20.0625 5.1375V8.225H18.4875C16.9375 8.225 16.45 9.1875 16.45 10.175V12.525H19.925L19.3625 16.15H16.45V24.9C19.3955 24.4348 22.0777 22.9319 24.0124 20.6625C25.947 18.3933 27.0068 15.507 27 12.525C27 5.6125 21.375 0 14.5 0Z" fill="white"/>
</svg>
