<svg width="18" height="18" viewBox="0 0 18 18" fill="none" xmlns="http://www.w3.org/2000/svg">
<path d="M7.7475 12.4446H3.02197" stroke="white" stroke-width="1.5" stroke-linecap="round" stroke-linejoin="round"/>
<path d="M9.85547 5.17529H14.581" stroke="white" stroke-width="1.5" stroke-linecap="round" stroke-linejoin="round"/>
<path fill-rule="evenodd" clip-rule="evenodd" d="M6.54472 5.13469C6.54472 4.16295 5.7511 3.375 4.77236 3.375C3.79362 3.375 3 4.16295 3 5.13469C3 6.10643 3.79362 6.89438 4.77236 6.89438C5.7511 6.89438 6.54472 6.10643 6.54472 5.13469Z" stroke="white" stroke-width="1.5" stroke-linecap="round" stroke-linejoin="round"/>
<path fill-rule="evenodd" clip-rule="evenodd" d="M15.0002 12.4152C15.0002 11.4435 14.2072 10.6555 13.2284 10.6555C12.2491 10.6555 11.4554 11.4435 11.4554 12.4152C11.4554 13.3869 12.2491 14.1749 13.2284 14.1749C14.2072 14.1749 15.0002 13.3869 15.0002 12.4152Z" stroke="white" stroke-width="1.5" stroke-linecap="round" stroke-linejoin="round"/>
</svg>
