<svg width="39" height="24" viewBox="0 0 39 24" fill="none" xmlns="http://www.w3.org/2000/svg">
<path d="M34.569 11.1781L21.569 2.17807C21.419 2.07426 21.2434 2.01347 21.0613 2.00229C20.8792 1.9911 20.6975 2.02994 20.5359 2.11461C20.3743 2.19927 20.239 2.32653 20.1445 2.48261C20.05 2.63869 20.0001 2.81763 20 3.00007V21.0001C19.9999 21.1826 20.0497 21.3617 20.1441 21.5179C20.2385 21.6741 20.3739 21.8015 20.5355 21.8863C20.6971 21.9711 20.8789 22.01 21.0611 21.9989C21.2432 21.9877 21.4189 21.9269 21.569 21.8231L34.569 12.8231C34.7014 12.7306 34.8096 12.6076 34.8843 12.4644C34.959 12.3212 34.998 12.1621 34.998 12.0006C34.998 11.8391 34.959 11.6799 34.8843 11.5367C34.8096 11.3935 34.7014 11.2705 34.569 11.1781Z" fill="white"/>
<path d="M19.569 11.1781L6.569 2.17807C6.41898 2.07426 6.24341 2.01347 6.06132 2.00229C5.87922 1.9911 5.69753 2.02994 5.53593 2.11461C5.37433 2.19927 5.23897 2.32653 5.1445 2.48261C5.05003 2.63869 5.00006 2.81763 5 3.00007V21.0001C4.99988 21.1826 5.04972 21.3617 5.14411 21.5179C5.2385 21.6741 5.37385 21.8015 5.53549 21.8863C5.69712 21.9711 5.87888 22.01 6.06107 21.9989C6.24325 21.9877 6.41891 21.9269 6.569 21.8231L19.569 12.8231C19.7014 12.7306 19.8096 12.6076 19.8843 12.4644C19.959 12.3212 19.998 12.1621 19.998 12.0006C19.998 11.8391 19.959 11.6799 19.8843 11.5367C19.8096 11.3935 19.7014 11.2705 19.569 11.1781Z" fill="white"/>
</svg>
