<svg width="27" height="27" viewBox="0 0 27 27" fill="none" xmlns="http://www.w3.org/2000/svg">
<path fill-rule="evenodd" clip-rule="evenodd" d="M26.0743 10.539H13.4325C13.4325 11.855 13.4325 14.4868 13.4244 15.8028H20.75C20.4693 17.1188 19.474 18.9615 18.0677 19.8893C18.0677 19.8893 18.0651 19.897 18.0624 19.8957C16.1927 21.1314 13.7253 21.4118 11.8932 21.0434C9.02156 20.4722 6.74891 18.3875 5.82616 15.7398C5.83154 15.7358 5.83558 15.6993 5.83961 15.6967C5.26205 14.0543 5.26205 11.855 5.83961 10.539H5.83827C6.58238 8.12025 8.92349 5.91343 11.7992 5.30939C14.1121 4.81852 16.7219 5.3499 18.6413 7.14755C18.8965 6.89751 22.1738 3.69451 22.4196 3.43394C15.8623 -2.51041 5.36278 -0.419354 1.43403 7.25685H1.43269C1.43269 7.25685 1.43404 7.25716 1.42598 7.27163C-0.517571 11.042 -0.436983 15.4846 1.43941 19.0747C1.43404 19.0786 1.43001 19.081 1.42598 19.085C3.12643 22.3881 6.22107 24.9213 9.94969 25.886C13.9107 26.9256 18.9515 26.215 22.3282 23.158L22.3323 23.1618C25.1932 20.5825 26.9742 16.1886 26.0743 10.539Z" fill="white"/>
</svg>
