<svg width="40" height="40" viewBox="0 0 40 40" fill="none" xmlns="http://www.w3.org/2000/svg">
<mask id="mask0_22_1491" style="mask-type:alpha" maskUnits="userSpaceOnUse" x="0" y="0" width="40" height="40">
<rect width="40" height="40" fill="#D9D9D9"/>
</mask>
<g mask="url(#mask0_22_1491)">
<path d="M15 35H8.33333C7.41667 35 6.63194 34.6736 5.97917 34.0208C5.32639 33.3681 5 32.5833 5 31.6667V20C5 17.9167 5.39583 15.9653 6.1875 14.1458C6.97917 12.3264 8.04861 10.7431 9.39583 9.39583C10.7431 8.04861 12.3264 6.97917 14.1458 6.1875C15.9653 5.39583 17.9167 5 20 5C22.0833 5 24.0347 5.39583 25.8542 6.1875C27.6736 6.97917 29.2569 8.04861 30.6042 9.39583C31.9514 10.7431 33.0208 12.3264 33.8125 14.1458C34.6042 15.9653 35 17.9167 35 20V31.6667C35 32.5833 34.6736 33.3681 34.0208 34.0208C33.3681 34.6736 32.5833 35 31.6667 35H25V21.6667H31.6667V20C31.6667 16.75 30.5347 13.9931 28.2708 11.7292C26.0069 9.46528 23.25 8.33333 20 8.33333C16.75 8.33333 13.9931 9.46528 11.7292 11.7292C9.46528 13.9931 8.33333 16.75 8.33333 20V21.6667H15V35ZM11.6667 25H8.33333V31.6667H11.6667V25ZM28.3333 25V31.6667H31.6667V25H28.3333Z" fill="white"/>
</g>
</svg>
