<svg width="12" height="18" viewBox="0 0 12 18" fill="none" xmlns="http://www.w3.org/2000/svg">
<path d="M6 16.5L6 13.5" stroke="white" stroke-width="1.5" stroke-linecap="round"/>
<path d="M0.75 7.56972V8.25C0.75 11.1495 3.10051 13.5 6 13.5V13.5C8.89949 13.5 11.25 11.1495 11.25 8.25V7.5" stroke="white" stroke-width="1.5" stroke-linecap="round"/>
<path d="M3 4.5C3 2.84315 4.34315 1.5 6 1.5V1.5V1.5C7.65685 1.5 9 2.84315 9 4.5V8.25C9 9.90685 7.65685 11.25 6 11.25V11.25V11.25C4.34315 11.25 3 9.90685 3 8.25V4.5Z" stroke="white" stroke-width="1.5"/>
<path d="M3 4.5H4.5" stroke="white" stroke-width="1.5" stroke-linecap="round"/>
<path d="M7.5 4.5H9" stroke="white" stroke-width="1.5" stroke-linecap="round"/>
<path d="M3 6.75H4.5" stroke="white" stroke-width="1.5" stroke-linecap="round"/>
<path d="M7.5 6.75H9" stroke="white" stroke-width="1.5" stroke-linecap="round"/>
<path d="M3 16.5H9" stroke="white" stroke-width="1.5" stroke-linecap="round"/>
<circle cx="6" cy="9" r="0.75" fill="white"/>
</svg>
