<svg width="26" height="26" viewBox="0 0 26 26" fill="none" xmlns="http://www.w3.org/2000/svg">
<path fill-rule="evenodd" clip-rule="evenodd" d="M2.16663 13.0064C2.16663 7.02685 7.02908 2.16675 13 2.16675C18.9709 2.16675 23.8333 7.02685 23.8333 13.0064C23.8333 18.9733 18.9709 23.8334 13 23.8334C7.02908 23.8334 2.16663 18.9733 2.16663 13.0064ZM16.9736 14.1027C17.0886 13.9878 17.235 13.8101 17.2663 13.7683C17.4337 13.5488 17.5174 13.2771 17.5174 13.0064C17.5174 12.7022 17.4232 12.42 17.2454 12.1901C17.2309 12.1754 17.2023 12.1445 17.1652 12.1039C17.0956 12.0283 16.9958 11.9196 16.9004 11.8242C16.0429 10.9045 13.8051 9.39942 12.634 8.93954C12.4562 8.86742 12.0065 8.70961 11.766 8.69915C11.5359 8.69915 11.3164 8.75141 11.1073 8.85593C10.8459 9.00226 10.6367 9.23219 10.5217 9.50394C10.4485 9.69207 10.3335 10.2565 10.3335 10.2669C10.2184 10.8836 10.1557 11.887 10.1557 12.9949C10.1557 14.0516 10.2184 15.012 10.3125 15.6392C10.3151 15.6418 10.3241 15.6866 10.3381 15.7563C10.3806 15.9681 10.4691 16.4094 10.5635 16.5902C10.7936 17.0292 11.2432 17.301 11.7242 17.301H11.766C12.0798 17.2905 12.7386 17.0188 12.7386 17.0084C13.847 16.5484 16.0324 15.1166 16.9108 14.1654L16.9736 14.1027Z" fill="#263238"/>
</svg>
